# xmcd
#
# Track frame offsets:
# 150
# 26052
# 42061
# 63843
# 85673
# 103990
# 126577
# 146729
# 166458
# 185293
# 205082
# 224202
# 244094
# 263166
# 285740
#
# Disc length: 4015 seconds
#
#
# Revision: 13
# Processed by: cddbd v1.5PL3 Copyright (c) Steve Scherf et al.
# Submitted via: FreeRIP 2.53 
#
DISCID=e70fad0f
DTITLE=Céline Dion - The Colour Of My Love
DYEAR=1993
DGENRE=Power Ballad
TTITLE0=The Power Of Love
TTITLE1=Misled
TTITLE2=Think Twice
TTITLE3=Only One Road
TTITLE4=Everybody's Talkin' My Baby Down
TTITLE5=Next Plane Out
TTITLE6=Real Emotion
TTITLE7=When I Fall In Love
TTITLE8=Love Doesn't Ask Why
TTITLE9=Refuse To Dance
TTITLE10=I Remember L.A.
TTITLE11=No Living Without Loving You
TTITLE12=Lovin' Proof
TTITLE13=Just Walk Away
TTITLE14=The Colour Of My Love
EXTD=YEAR: 1993
EXTT0=
EXTT1=
EXTT2=
EXTT3=
EXTT4=
EXTT5=
EXTT6=
EXTT7=
EXTT8=
EXTT9=
EXTT10=
EXTT11=
EXTT12=
EXTT13=
EXTT14=
PLAYORDER=
